<mxfile host="www.draw.io" modified="2020-05-29T03:04:02.751Z" agent="5.0 (Macintosh; Intel Mac OS X 10_15_4) AppleWebKit/537.36 (KHTML, like Gecko) Chrome/81.0.4044.138 Safari/537.36" etag="nMtV3fkXyzEUnGYkyM5P" version="13.1.3" type="github" pages="4">
  <diagram id="C5RBs43oDa-KdzZeNtuy" name="ECR">
    <mxGraphModel dx="1186" dy="764" grid="1" gridSize="10" guides="1" tooltips="1" connect="1" arrows="1" fold="1" page="1" pageScale="1" pageWidth="827" pageHeight="1169" math="0" shadow="0">
      <root>
        <mxCell id="WIyWlLk6GJQsqaUBKTNV-0" />
        <mxCell id="WIyWlLk6GJQsqaUBKTNV-1" parent="WIyWlLk6GJQsqaUBKTNV-0" />
        <mxCell id="WIyWlLk6GJQsqaUBKTNV-2" value="" style="rounded=0;html=1;jettySize=auto;orthogonalLoop=1;fontSize=11;endArrow=block;endFill=0;endSize=8;strokeWidth=1;shadow=0;labelBackgroundColor=none;edgeStyle=orthogonalEdgeStyle;exitX=0.5;exitY=1;exitDx=0;exitDy=0;entryX=0.5;entryY=0;entryDx=0;entryDy=0;" parent="WIyWlLk6GJQsqaUBKTNV-1" source="4oQZNx9lgn8CLh6xkxKl-3" target="4oQZNx9lgn8CLh6xkxKl-2" edge="1">
          <mxGeometry relative="1" as="geometry">
            <mxPoint x="215" y="170" as="sourcePoint" />
          </mxGeometry>
        </mxCell>
        <mxCell id="4oQZNx9lgn8CLh6xkxKl-31" style="edgeStyle=orthogonalEdgeStyle;rounded=0;orthogonalLoop=1;jettySize=auto;html=1;" parent="WIyWlLk6GJQsqaUBKTNV-1" source="4oQZNx9lgn8CLh6xkxKl-2" target="4oQZNx9lgn8CLh6xkxKl-6" edge="1">
          <mxGeometry relative="1" as="geometry" />
        </mxCell>
        <mxCell id="4oQZNx9lgn8CLh6xkxKl-2" value="ECR序號申請" style="shape=parallelogram;perimeter=parallelogramPerimeter;whiteSpace=wrap;html=1;fillColor=#dae8fc;strokeColor=#6c8ebf;" parent="WIyWlLk6GJQsqaUBKTNV-1" vertex="1">
          <mxGeometry x="245" y="79" width="120" height="60" as="geometry" />
        </mxCell>
        <mxCell id="4oQZNx9lgn8CLh6xkxKl-3" value="" style="ellipse;whiteSpace=wrap;html=1;aspect=fixed;" parent="WIyWlLk6GJQsqaUBKTNV-1" vertex="1">
          <mxGeometry x="280" y="10" width="50" height="50" as="geometry" />
        </mxCell>
        <mxCell id="4oQZNx9lgn8CLh6xkxKl-9" style="edgeStyle=orthogonalEdgeStyle;rounded=0;orthogonalLoop=1;jettySize=auto;html=1;entryX=0.5;entryY=0;entryDx=0;entryDy=0;" parent="WIyWlLk6GJQsqaUBKTNV-1" source="4oQZNx9lgn8CLh6xkxKl-6" target="4oQZNx9lgn8CLh6xkxKl-8" edge="1">
          <mxGeometry relative="1" as="geometry" />
        </mxCell>
        <mxCell id="4oQZNx9lgn8CLh6xkxKl-6" value="RD開發" style="shape=parallelogram;perimeter=parallelogramPerimeter;whiteSpace=wrap;html=1;fillColor=#dae8fc;strokeColor=#6c8ebf;" parent="WIyWlLk6GJQsqaUBKTNV-1" vertex="1">
          <mxGeometry x="245" y="159" width="120" height="60" as="geometry" />
        </mxCell>
        <mxCell id="4oQZNx9lgn8CLh6xkxKl-21" style="edgeStyle=orthogonalEdgeStyle;rounded=0;orthogonalLoop=1;jettySize=auto;html=1;exitX=0.5;exitY=1;exitDx=0;exitDy=0;entryX=0.5;entryY=0;entryDx=0;entryDy=0;" parent="WIyWlLk6GJQsqaUBKTNV-1" source="4oQZNx9lgn8CLh6xkxKl-8" target="4oQZNx9lgn8CLh6xkxKl-12" edge="1">
          <mxGeometry relative="1" as="geometry" />
        </mxCell>
        <mxCell id="4oQZNx9lgn8CLh6xkxKl-41" style="edgeStyle=orthogonalEdgeStyle;rounded=0;orthogonalLoop=1;jettySize=auto;html=1;fontColor=#FF3333;entryX=0;entryY=0.5;entryDx=0;entryDy=0;exitX=0;exitY=0.5;exitDx=0;exitDy=0;" parent="WIyWlLk6GJQsqaUBKTNV-1" source="4oQZNx9lgn8CLh6xkxKl-8" target="4oQZNx9lgn8CLh6xkxKl-6" edge="1">
          <mxGeometry relative="1" as="geometry">
            <mxPoint x="210" y="179" as="targetPoint" />
            <Array as="points">
              <mxPoint x="210" y="279" />
              <mxPoint x="210" y="189" />
            </Array>
          </mxGeometry>
        </mxCell>
        <mxCell id="4oQZNx9lgn8CLh6xkxKl-42" value="Failed" style="edgeLabel;html=1;align=center;verticalAlign=middle;resizable=0;points=[];fontColor=#FF3333;" parent="4oQZNx9lgn8CLh6xkxKl-41" vertex="1" connectable="0">
          <mxGeometry x="-0.008" y="2" relative="1" as="geometry">
            <mxPoint as="offset" />
          </mxGeometry>
        </mxCell>
        <mxCell id="4oQZNx9lgn8CLh6xkxKl-8" value="QA進測" style="rhombus;whiteSpace=wrap;html=1;fillColor=#d5e8d4;strokeColor=#82b366;" parent="WIyWlLk6GJQsqaUBKTNV-1" vertex="1">
          <mxGeometry x="265" y="239" width="80" height="80" as="geometry" />
        </mxCell>
        <mxCell id="4oQZNx9lgn8CLh6xkxKl-22" style="edgeStyle=orthogonalEdgeStyle;rounded=0;orthogonalLoop=1;jettySize=auto;html=1;exitX=0.5;exitY=1;exitDx=0;exitDy=0;entryX=0.5;entryY=0;entryDx=0;entryDy=0;" parent="WIyWlLk6GJQsqaUBKTNV-1" source="4oQZNx9lgn8CLh6xkxKl-12" target="4oQZNx9lgn8CLh6xkxKl-13" edge="1">
          <mxGeometry relative="1" as="geometry" />
        </mxCell>
        <mxCell id="4oQZNx9lgn8CLh6xkxKl-12" value="結案測試報告" style="shape=parallelogram;perimeter=parallelogramPerimeter;whiteSpace=wrap;html=1;fillColor=#d5e8d4;strokeColor=#82b366;" parent="WIyWlLk6GJQsqaUBKTNV-1" vertex="1">
          <mxGeometry x="245" y="339" width="120" height="60" as="geometry" />
        </mxCell>
        <mxCell id="4oQZNx9lgn8CLh6xkxKl-23" style="edgeStyle=orthogonalEdgeStyle;rounded=0;orthogonalLoop=1;jettySize=auto;html=1;exitX=0.5;exitY=1;exitDx=0;exitDy=0;" parent="WIyWlLk6GJQsqaUBKTNV-1" source="4oQZNx9lgn8CLh6xkxKl-13" target="4oQZNx9lgn8CLh6xkxKl-14" edge="1">
          <mxGeometry relative="1" as="geometry" />
        </mxCell>
        <mxCell id="4oQZNx9lgn8CLh6xkxKl-13" value="燒錄光碟" style="shape=parallelogram;perimeter=parallelogramPerimeter;whiteSpace=wrap;html=1;fillColor=#d5e8d4;strokeColor=#82b366;" parent="WIyWlLk6GJQsqaUBKTNV-1" vertex="1">
          <mxGeometry x="245" y="419" width="120" height="60" as="geometry" />
        </mxCell>
        <mxCell id="4oQZNx9lgn8CLh6xkxKl-35" value="" style="edgeStyle=orthogonalEdgeStyle;rounded=0;orthogonalLoop=1;jettySize=auto;html=1;" parent="WIyWlLk6GJQsqaUBKTNV-1" source="4oQZNx9lgn8CLh6xkxKl-14" target="4oQZNx9lgn8CLh6xkxKl-34" edge="1">
          <mxGeometry relative="1" as="geometry" />
        </mxCell>
        <mxCell id="4oQZNx9lgn8CLh6xkxKl-14" value="文管發行" style="shape=parallelogram;perimeter=parallelogramPerimeter;whiteSpace=wrap;html=1;fillColor=#fff2cc;strokeColor=#d6b656;" parent="WIyWlLk6GJQsqaUBKTNV-1" vertex="1">
          <mxGeometry x="245" y="499" width="120" height="60" as="geometry" />
        </mxCell>
        <mxCell id="4oQZNx9lgn8CLh6xkxKl-15" value="" style="ellipse;whiteSpace=wrap;html=1;aspect=fixed;" parent="WIyWlLk6GJQsqaUBKTNV-1" vertex="1">
          <mxGeometry x="280" y="659" width="50" height="50" as="geometry" />
        </mxCell>
        <mxCell id="4oQZNx9lgn8CLh6xkxKl-19" value="待辦事項：&lt;br&gt;1.預計以Semver格式定義&lt;br&gt;Ex:GCMS 3.0.0" style="text;html=1;strokeColor=none;fillColor=none;align=left;verticalAlign=middle;whiteSpace=wrap;rounded=0;fontColor=#FF3333;" parent="WIyWlLk6GJQsqaUBKTNV-1" vertex="1">
          <mxGeometry x="380" y="99" width="218" height="20" as="geometry" />
        </mxCell>
        <mxCell id="4oQZNx9lgn8CLh6xkxKl-25" value="RD" style="rounded=1;whiteSpace=wrap;html=1;align=center;fillColor=#dae8fc;strokeColor=#6c8ebf;" parent="WIyWlLk6GJQsqaUBKTNV-1" vertex="1">
          <mxGeometry x="20" y="10" width="120" height="60" as="geometry" />
        </mxCell>
        <mxCell id="4oQZNx9lgn8CLh6xkxKl-26" value="QA" style="rounded=1;whiteSpace=wrap;html=1;align=center;fillColor=#d5e8d4;strokeColor=#82b366;" parent="WIyWlLk6GJQsqaUBKTNV-1" vertex="1">
          <mxGeometry x="20" y="90" width="120" height="60" as="geometry" />
        </mxCell>
        <mxCell id="4oQZNx9lgn8CLh6xkxKl-28" value="Mandy" style="rounded=1;whiteSpace=wrap;html=1;align=center;fillColor=#fff2cc;strokeColor=#d6b656;" parent="WIyWlLk6GJQsqaUBKTNV-1" vertex="1">
          <mxGeometry x="20" y="170" width="120" height="60" as="geometry" />
        </mxCell>
        <mxCell id="4oQZNx9lgn8CLh6xkxKl-29" value="每次進測前，由PL與QA討論後決定進測範圍與預計時程並公告。" style="text;html=1;strokeColor=none;fillColor=none;align=left;verticalAlign=middle;whiteSpace=wrap;rounded=0;" parent="WIyWlLk6GJQsqaUBKTNV-1" vertex="1">
          <mxGeometry x="380" y="179" width="190" height="20" as="geometry" />
        </mxCell>
        <mxCell id="4oQZNx9lgn8CLh6xkxKl-32" value="待辦事項：&lt;br&gt;1.結案報告相關文件由QA重新定義（測試計畫、測試報告）" style="text;html=1;strokeColor=none;fillColor=none;align=left;verticalAlign=middle;whiteSpace=wrap;rounded=0;fontColor=#FF3333;" parent="WIyWlLk6GJQsqaUBKTNV-1" vertex="1">
          <mxGeometry x="380" y="339" width="380" height="40" as="geometry" />
        </mxCell>
        <mxCell id="4oQZNx9lgn8CLh6xkxKl-33" value="待辦事項：&lt;br&gt;1.將檔案放置到文管發行File Server，目錄未定&lt;br&gt;2.發Mail到全Gama及Jumbo必要窗口，窗口未定&lt;br&gt;" style="text;html=1;strokeColor=none;fillColor=none;align=left;verticalAlign=middle;whiteSpace=wrap;rounded=0;fontColor=#FF3333;" parent="WIyWlLk6GJQsqaUBKTNV-1" vertex="1">
          <mxGeometry x="380" y="509" width="280" height="20" as="geometry" />
        </mxCell>
        <mxCell id="4oQZNx9lgn8CLh6xkxKl-36" value="" style="edgeStyle=orthogonalEdgeStyle;rounded=0;orthogonalLoop=1;jettySize=auto;html=1;" parent="WIyWlLk6GJQsqaUBKTNV-1" source="4oQZNx9lgn8CLh6xkxKl-34" target="4oQZNx9lgn8CLh6xkxKl-15" edge="1">
          <mxGeometry relative="1" as="geometry" />
        </mxCell>
        <mxCell id="4oQZNx9lgn8CLh6xkxKl-34" value="Confluence&lt;br&gt;文件鎖定" style="shape=parallelogram;perimeter=parallelogramPerimeter;whiteSpace=wrap;html=1;fillColor=#d5e8d4;strokeColor=#82b366;" parent="WIyWlLk6GJQsqaUBKTNV-1" vertex="1">
          <mxGeometry x="245" y="579" width="120" height="60" as="geometry" />
        </mxCell>
        <mxCell id="4oQZNx9lgn8CLh6xkxKl-37" value="待辦事項：&lt;br&gt;1.確認文管發行後，由QA將文件鎖定，避免再被更改。" style="text;html=1;strokeColor=none;fillColor=none;align=left;verticalAlign=middle;whiteSpace=wrap;rounded=0;fontColor=#FF3333;" parent="WIyWlLk6GJQsqaUBKTNV-1" vertex="1">
          <mxGeometry x="380" y="589" width="303" height="20" as="geometry" />
        </mxCell>
        <mxCell id="4oQZNx9lgn8CLh6xkxKl-39" value="待辦事項：&lt;br&gt;1.文件送翻譯外包、業務協助Review" style="text;html=1;strokeColor=none;fillColor=none;align=left;verticalAlign=middle;whiteSpace=wrap;rounded=0;fontColor=#FF3333;" parent="WIyWlLk6GJQsqaUBKTNV-1" vertex="1">
          <mxGeometry x="380" y="419" width="330" height="40" as="geometry" />
        </mxCell>
        <mxCell id="4oQZNx9lgn8CLh6xkxKl-43" value="待辦事項：&lt;br&gt;1.進測File Server，路徑未定&lt;br&gt;2.進測目錄結構由QA重新定義(以能直接送GLI為前提)" style="text;html=1;strokeColor=none;fillColor=none;align=left;verticalAlign=middle;whiteSpace=wrap;rounded=0;fontColor=#FF3333;" parent="WIyWlLk6GJQsqaUBKTNV-1" vertex="1">
          <mxGeometry x="380" y="259" width="360" height="40" as="geometry" />
        </mxCell>
      </root>
    </mxGraphModel>
  </diagram>
  <diagram id="HxUfFIk3AVZJNgJF99FN" name="下單流程">
    <mxGraphModel dx="1186" dy="764" grid="1" gridSize="10" guides="1" tooltips="1" connect="1" arrows="1" fold="1" page="1" pageScale="1" pageWidth="827" pageHeight="800" math="0" shadow="0">
      <root>
        <mxCell id="aETUsfB-P1Pseg2wxix5-0" />
        <mxCell id="aETUsfB-P1Pseg2wxix5-1" parent="aETUsfB-P1Pseg2wxix5-0" />
        <mxCell id="jpN9vbejda2EdrlpC77e-0" value="" style="rounded=0;html=1;jettySize=auto;orthogonalLoop=1;fontSize=11;endArrow=block;endFill=0;endSize=8;strokeWidth=1;shadow=0;labelBackgroundColor=none;edgeStyle=orthogonalEdgeStyle;exitX=0.5;exitY=1;exitDx=0;exitDy=0;entryX=0.5;entryY=0;entryDx=0;entryDy=0;" edge="1" parent="aETUsfB-P1Pseg2wxix5-1" source="jpN9vbejda2EdrlpC77e-3" target="jpN9vbejda2EdrlpC77e-2">
          <mxGeometry relative="1" as="geometry">
            <mxPoint x="295" y="160" as="sourcePoint" />
          </mxGeometry>
        </mxCell>
        <mxCell id="jpN9vbejda2EdrlpC77e-1" style="edgeStyle=orthogonalEdgeStyle;rounded=0;orthogonalLoop=1;jettySize=auto;html=1;" edge="1" parent="aETUsfB-P1Pseg2wxix5-1">
          <mxGeometry relative="1" as="geometry">
            <mxPoint x="324.5" y="129" as="sourcePoint" />
            <mxPoint x="324.5" y="190" as="targetPoint" />
          </mxGeometry>
        </mxCell>
        <mxCell id="jpN9vbejda2EdrlpC77e-2" value="ECR完成後，發技術通報" style="shape=parallelogram;perimeter=parallelogramPerimeter;whiteSpace=wrap;html=1;fillColor=#dae8fc;strokeColor=#6c8ebf;" vertex="1" parent="aETUsfB-P1Pseg2wxix5-1">
          <mxGeometry x="200" y="69" width="245" height="60" as="geometry" />
        </mxCell>
        <mxCell id="jpN9vbejda2EdrlpC77e-3" value="" style="ellipse;whiteSpace=wrap;html=1;aspect=fixed;" vertex="1" parent="aETUsfB-P1Pseg2wxix5-1">
          <mxGeometry x="297.5" width="50" height="50" as="geometry" />
        </mxCell>
        <mxCell id="J29au2INGZz_lbAHCnlf-3" value="" style="edgeStyle=orthogonalEdgeStyle;rounded=0;orthogonalLoop=1;jettySize=auto;html=1;" edge="1" parent="aETUsfB-P1Pseg2wxix5-1" source="jpN9vbejda2EdrlpC77e-5" target="J29au2INGZz_lbAHCnlf-1">
          <mxGeometry relative="1" as="geometry" />
        </mxCell>
        <mxCell id="jpN9vbejda2EdrlpC77e-5" value="Jumbo內部建置料號" style="shape=parallelogram;perimeter=parallelogramPerimeter;whiteSpace=wrap;html=1;fillColor=#d5e8d4;strokeColor=#82b366;" vertex="1" parent="aETUsfB-P1Pseg2wxix5-1">
          <mxGeometry x="200" y="190" width="245" height="60" as="geometry" />
        </mxCell>
        <mxCell id="J29au2INGZz_lbAHCnlf-1" value="Jumbo內部建置料號" style="shape=parallelogram;perimeter=parallelogramPerimeter;whiteSpace=wrap;html=1;fillColor=#dae8fc;strokeColor=#6c8ebf;" vertex="1" parent="aETUsfB-P1Pseg2wxix5-1">
          <mxGeometry x="200" y="330" width="245" height="60" as="geometry" />
        </mxCell>
        <mxCell id="jpN9vbejda2EdrlpC77e-17" value="GAMA負責單位：Mandy&lt;br&gt;GAMA負責單位：業務、業助、技術窗口&lt;br&gt;備註：由Gama發技術通報給Jumbo" style="text;html=1;strokeColor=none;fillColor=none;align=left;verticalAlign=top;whiteSpace=wrap;rounded=0;fontColor=#FF3333;" vertex="1" parent="aETUsfB-P1Pseg2wxix5-1">
          <mxGeometry x="460" y="69" width="290" height="50" as="geometry" />
        </mxCell>
        <mxCell id="4uPZqzA6Gq6t_CnHM0yO-0" value="GAMA" style="rounded=1;whiteSpace=wrap;html=1;align=center;fillColor=#dae8fc;strokeColor=#6c8ebf;" vertex="1" parent="aETUsfB-P1Pseg2wxix5-1">
          <mxGeometry x="20" y="10" width="120" height="60" as="geometry" />
        </mxCell>
        <mxCell id="J29au2INGZz_lbAHCnlf-0" value="Jumbo" style="rounded=1;whiteSpace=wrap;html=1;align=center;fillColor=#d5e8d4;strokeColor=#82b366;" vertex="1" parent="aETUsfB-P1Pseg2wxix5-1">
          <mxGeometry x="20" y="90" width="120" height="60" as="geometry" />
        </mxCell>
        <mxCell id="J29au2INGZz_lbAHCnlf-4" value="GAMA負責單位：Mandy&lt;br&gt;Jumbo負責單位：業務、業助、技術窗口&lt;br&gt;備註：由Gama發技術通報給Jumbo" style="text;html=1;strokeColor=none;fillColor=none;align=left;verticalAlign=top;whiteSpace=wrap;rounded=0;fontColor=#FF3333;" vertex="1" parent="aETUsfB-P1Pseg2wxix5-1">
          <mxGeometry x="460" y="190" width="290" height="50" as="geometry" />
        </mxCell>
      </root>
    </mxGraphModel>
  </diagram>
  <diagram id="IrMMFwR9xo3PsOiLZ2qB" name="出貨流程">
    <mxGraphModel dx="1186" dy="764" grid="1" gridSize="10" guides="1" tooltips="1" connect="1" arrows="1" fold="1" page="1" pageScale="1" pageWidth="827" pageHeight="800" math="0" shadow="0">
      <root>
        <mxCell id="r6B-FkzGuG2wDu2rGmW7-0" />
        <mxCell id="r6B-FkzGuG2wDu2rGmW7-1" parent="r6B-FkzGuG2wDu2rGmW7-0" />
        <mxCell id="oTgptQeOYgolrX3Tl9ep-0" value="" style="rounded=0;html=1;jettySize=auto;orthogonalLoop=1;fontSize=11;endArrow=block;endFill=0;endSize=8;strokeWidth=1;shadow=0;labelBackgroundColor=none;edgeStyle=orthogonalEdgeStyle;exitX=0.5;exitY=1;exitDx=0;exitDy=0;entryX=0.5;entryY=0;entryDx=0;entryDy=0;" edge="1" parent="r6B-FkzGuG2wDu2rGmW7-1" source="oTgptQeOYgolrX3Tl9ep-3" target="oTgptQeOYgolrX3Tl9ep-2">
          <mxGeometry relative="1" as="geometry">
            <mxPoint x="295" y="160" as="sourcePoint" />
          </mxGeometry>
        </mxCell>
        <mxCell id="oTgptQeOYgolrX3Tl9ep-1" style="edgeStyle=orthogonalEdgeStyle;rounded=0;orthogonalLoop=1;jettySize=auto;html=1;" edge="1" parent="r6B-FkzGuG2wDu2rGmW7-1">
          <mxGeometry relative="1" as="geometry">
            <mxPoint x="324.5" y="129" as="sourcePoint" />
            <mxPoint x="324.5" y="190" as="targetPoint" />
          </mxGeometry>
        </mxCell>
        <mxCell id="oTgptQeOYgolrX3Tl9ep-2" value="Gama對Jumbo下單" style="shape=parallelogram;perimeter=parallelogramPerimeter;whiteSpace=wrap;html=1;fillColor=#dae8fc;strokeColor=#6c8ebf;" vertex="1" parent="r6B-FkzGuG2wDu2rGmW7-1">
          <mxGeometry x="200" y="69" width="245" height="60" as="geometry" />
        </mxCell>
        <mxCell id="oTgptQeOYgolrX3Tl9ep-3" value="" style="ellipse;whiteSpace=wrap;html=1;aspect=fixed;" vertex="1" parent="r6B-FkzGuG2wDu2rGmW7-1">
          <mxGeometry x="297.5" width="50" height="50" as="geometry" />
        </mxCell>
        <mxCell id="oTgptQeOYgolrX3Tl9ep-4" value="" style="edgeStyle=orthogonalEdgeStyle;rounded=0;orthogonalLoop=1;jettySize=auto;html=1;" edge="1" parent="r6B-FkzGuG2wDu2rGmW7-1" source="oTgptQeOYgolrX3Tl9ep-5" target="oTgptQeOYgolrX3Tl9ep-6">
          <mxGeometry relative="1" as="geometry" />
        </mxCell>
        <mxCell id="oTgptQeOYgolrX3Tl9ep-5" value="Jumbo內部建置料號" style="shape=parallelogram;perimeter=parallelogramPerimeter;whiteSpace=wrap;html=1;fillColor=#d5e8d4;strokeColor=#82b366;" vertex="1" parent="r6B-FkzGuG2wDu2rGmW7-1">
          <mxGeometry x="200" y="190" width="245" height="60" as="geometry" />
        </mxCell>
        <mxCell id="oTgptQeOYgolrX3Tl9ep-6" value="Jumbo內部建置料號" style="shape=parallelogram;perimeter=parallelogramPerimeter;whiteSpace=wrap;html=1;fillColor=#dae8fc;strokeColor=#6c8ebf;" vertex="1" parent="r6B-FkzGuG2wDu2rGmW7-1">
          <mxGeometry x="200" y="330" width="245" height="60" as="geometry" />
        </mxCell>
        <mxCell id="oTgptQeOYgolrX3Tl9ep-7" value="GAMA負責單位：Mandy下單&lt;br&gt;Jumbo負責單位：Ivy接收需求&lt;br&gt;備註：Gama定期會跟Jumbo要離線版的Bom資料" style="text;html=1;strokeColor=none;fillColor=none;align=left;verticalAlign=top;whiteSpace=wrap;rounded=0;fontColor=#FF3333;" vertex="1" parent="r6B-FkzGuG2wDu2rGmW7-1">
          <mxGeometry x="460" y="69" width="290" height="50" as="geometry" />
        </mxCell>
        <mxCell id="oTgptQeOYgolrX3Tl9ep-8" value="GAMA" style="rounded=1;whiteSpace=wrap;html=1;align=center;fillColor=#dae8fc;strokeColor=#6c8ebf;" vertex="1" parent="r6B-FkzGuG2wDu2rGmW7-1">
          <mxGeometry x="20" y="10" width="120" height="60" as="geometry" />
        </mxCell>
        <mxCell id="oTgptQeOYgolrX3Tl9ep-9" value="Jumbo" style="rounded=1;whiteSpace=wrap;html=1;align=center;fillColor=#d5e8d4;strokeColor=#82b366;" vertex="1" parent="r6B-FkzGuG2wDu2rGmW7-1">
          <mxGeometry x="20" y="90" width="120" height="60" as="geometry" />
        </mxCell>
        <mxCell id="oTgptQeOYgolrX3Tl9ep-11" value="GAMA負責單位：Mandy&lt;br&gt;GAMA負責單位：業務、業助、技術窗口&lt;br&gt;備註：由Gama發技術通報給Jumbo" style="text;html=1;strokeColor=none;fillColor=none;align=left;verticalAlign=top;whiteSpace=wrap;rounded=0;fontColor=#FF3333;" vertex="1" parent="r6B-FkzGuG2wDu2rGmW7-1">
          <mxGeometry x="470" y="190" width="290" height="50" as="geometry" />
        </mxCell>
      </root>
    </mxGraphModel>
  </diagram>
  <diagram id="HnjsIvRFvdbbt__6zXn-" name="設變流程">
    <mxGraphModel dx="1186" dy="764" grid="1" gridSize="10" guides="1" tooltips="1" connect="1" arrows="1" fold="1" page="1" pageScale="1" pageWidth="827" pageHeight="800" math="0" shadow="0">
      <root>
        <mxCell id="eu_W87JiQ_ajuO9xB2u2-0" />
        <mxCell id="eu_W87JiQ_ajuO9xB2u2-1" parent="eu_W87JiQ_ajuO9xB2u2-0" />
        <mxCell id="B7W5OUelRsLah0IbCNuM-0" value="" style="rounded=0;html=1;jettySize=auto;orthogonalLoop=1;fontSize=11;endArrow=block;endFill=0;endSize=8;strokeWidth=1;shadow=0;labelBackgroundColor=none;edgeStyle=orthogonalEdgeStyle;exitX=0.5;exitY=1;exitDx=0;exitDy=0;entryX=0.5;entryY=0;entryDx=0;entryDy=0;" edge="1" parent="eu_W87JiQ_ajuO9xB2u2-1" source="B7W5OUelRsLah0IbCNuM-3" target="B7W5OUelRsLah0IbCNuM-2">
          <mxGeometry relative="1" as="geometry">
            <mxPoint x="295" y="160" as="sourcePoint" />
          </mxGeometry>
        </mxCell>
        <mxCell id="B7W5OUelRsLah0IbCNuM-1" style="edgeStyle=orthogonalEdgeStyle;rounded=0;orthogonalLoop=1;jettySize=auto;html=1;" edge="1" parent="eu_W87JiQ_ajuO9xB2u2-1">
          <mxGeometry relative="1" as="geometry">
            <mxPoint x="324.5" y="129" as="sourcePoint" />
            <mxPoint x="324.5" y="190" as="targetPoint" />
          </mxGeometry>
        </mxCell>
        <mxCell id="B7W5OUelRsLah0IbCNuM-2" value="廠商通知Jumbo硬體停產" style="shape=parallelogram;perimeter=parallelogramPerimeter;whiteSpace=wrap;html=1;fillColor=#d5e8d4;strokeColor=#82b366;" vertex="1" parent="eu_W87JiQ_ajuO9xB2u2-1">
          <mxGeometry x="200" y="69" width="245" height="60" as="geometry" />
        </mxCell>
        <mxCell id="B7W5OUelRsLah0IbCNuM-3" value="" style="ellipse;whiteSpace=wrap;html=1;aspect=fixed;" vertex="1" parent="eu_W87JiQ_ajuO9xB2u2-1">
          <mxGeometry x="297.5" width="50" height="50" as="geometry" />
        </mxCell>
        <mxCell id="B7W5OUelRsLah0IbCNuM-4" value="" style="edgeStyle=orthogonalEdgeStyle;rounded=0;orthogonalLoop=1;jettySize=auto;html=1;" edge="1" parent="eu_W87JiQ_ajuO9xB2u2-1" source="B7W5OUelRsLah0IbCNuM-5" target="B7W5OUelRsLah0IbCNuM-6">
          <mxGeometry relative="1" as="geometry" />
        </mxCell>
        <mxCell id="B7W5OUelRsLah0IbCNuM-5" value="Gama自行找廠商測試新機型" style="shape=parallelogram;perimeter=parallelogramPerimeter;whiteSpace=wrap;html=1;fillColor=#dae8fc;strokeColor=#6c8ebf;" vertex="1" parent="eu_W87JiQ_ajuO9xB2u2-1">
          <mxGeometry x="200" y="190" width="245" height="60" as="geometry" />
        </mxCell>
        <mxCell id="B7W5OUelRsLah0IbCNuM-12" value="" style="edgeStyle=orthogonalEdgeStyle;rounded=0;orthogonalLoop=1;jettySize=auto;html=1;" edge="1" parent="eu_W87JiQ_ajuO9xB2u2-1" source="B7W5OUelRsLah0IbCNuM-6" target="B7W5OUelRsLah0IbCNuM-11">
          <mxGeometry relative="1" as="geometry" />
        </mxCell>
        <mxCell id="B7W5OUelRsLah0IbCNuM-6" value="Gama告知Jumbo可用新機型" style="shape=parallelogram;perimeter=parallelogramPerimeter;whiteSpace=wrap;html=1;fillColor=#dae8fc;strokeColor=#6c8ebf;" vertex="1" parent="eu_W87JiQ_ajuO9xB2u2-1">
          <mxGeometry x="200" y="310" width="245" height="60" as="geometry" />
        </mxCell>
        <mxCell id="B7W5OUelRsLah0IbCNuM-14" value="" style="edgeStyle=orthogonalEdgeStyle;rounded=0;orthogonalLoop=1;jettySize=auto;html=1;" edge="1" parent="eu_W87JiQ_ajuO9xB2u2-1" source="B7W5OUelRsLah0IbCNuM-11" target="B7W5OUelRsLah0IbCNuM-13">
          <mxGeometry relative="1" as="geometry" />
        </mxCell>
        <mxCell id="B7W5OUelRsLah0IbCNuM-11" value="Jumbo確認後更新Bom" style="shape=parallelogram;perimeter=parallelogramPerimeter;whiteSpace=wrap;html=1;fillColor=#d5e8d4;strokeColor=#82b366;" vertex="1" parent="eu_W87JiQ_ajuO9xB2u2-1">
          <mxGeometry x="200" y="420" width="245" height="60" as="geometry" />
        </mxCell>
        <mxCell id="B7W5OUelRsLah0IbCNuM-7" value="GAMA負責單位：Mandy收信&lt;br&gt;Jumbo負責單位：XXX發信給Gama告知&lt;br&gt;備註：Gama自行跟廠商借新機器測試" style="text;html=1;strokeColor=none;fillColor=none;align=left;verticalAlign=top;whiteSpace=wrap;rounded=0;fontColor=#FF3333;" vertex="1" parent="eu_W87JiQ_ajuO9xB2u2-1">
          <mxGeometry x="460" y="69" width="290" height="50" as="geometry" />
        </mxCell>
        <mxCell id="B7W5OUelRsLah0IbCNuM-8" value="GAMA" style="rounded=1;whiteSpace=wrap;html=1;align=center;fillColor=#dae8fc;strokeColor=#6c8ebf;" vertex="1" parent="eu_W87JiQ_ajuO9xB2u2-1">
          <mxGeometry x="20" y="10" width="120" height="60" as="geometry" />
        </mxCell>
        <mxCell id="B7W5OUelRsLah0IbCNuM-9" value="Jumbo" style="rounded=1;whiteSpace=wrap;html=1;align=center;fillColor=#d5e8d4;strokeColor=#82b366;" vertex="1" parent="eu_W87JiQ_ajuO9xB2u2-1">
          <mxGeometry x="20" y="90" width="120" height="60" as="geometry" />
        </mxCell>
        <mxCell id="B7W5OUelRsLah0IbCNuM-10" value="GAMA負責單位：Mandy&lt;br&gt;GAMA負責單位：業務、業助、技術窗口&lt;br&gt;備註：由Gama發技術通報給Jumbo" style="text;html=1;strokeColor=none;fillColor=none;align=left;verticalAlign=top;whiteSpace=wrap;rounded=0;fontColor=#FF3333;" vertex="1" parent="eu_W87JiQ_ajuO9xB2u2-1">
          <mxGeometry x="470" y="190" width="290" height="50" as="geometry" />
        </mxCell>
        <mxCell id="B7W5OUelRsLah0IbCNuM-13" value="" style="ellipse;whiteSpace=wrap;html=1;aspect=fixed;" vertex="1" parent="eu_W87JiQ_ajuO9xB2u2-1">
          <mxGeometry x="297.5" y="520" width="50" height="50" as="geometry" />
        </mxCell>
      </root>
    </mxGraphModel>
  </diagram>
</mxfile>
